REM DIRINDEX 1\2,1\3,1\4,1\5,1\6
REM DIRNAME cjc129,folder01,folder02,folder03,folder04,folder05
TITLE ""
FILE "DISC5Track19.mp3" MP3
  TRACK 01 AUDIO
    TITLE "0:"
    INDEX 01 00:00:00
  TRACK 02 AUDIO
    TITLE "2:cjc129_4415"
    INDEX 01 00:03:14
  TRACK 03 AUDIO
    TITLE "0:"
    INDEX 01 00:08:24
  TRACK 04 AUDIO
    TITLE "3:cjc129_4416"
    INDEX 01 00:09:36
  TRACK 05 AUDIO
    TITLE "0:"
    INDEX 01 00:10:61
  TRACK 06 AUDIO
    TITLE "5:cjc129_4417"
    INDEX 01 00:11:17
  TRACK 07 AUDIO
    TITLE "0:"
    INDEX 01 00:13:06
  TRACK 08 AUDIO
    TITLE "4:cjc129_4418"
    INDEX 01 00:13:71
  TRACK 09 AUDIO
    TITLE "0:"
    INDEX 01 00:15:19
  TRACK 10 AUDIO
    TITLE "6:cjc129_4419"
    INDEX 01 00:15:52
  TRACK 11 AUDIO
    TITLE "0:"
    INDEX 01 00:19:65
  TRACK 12 AUDIO
    TITLE "3:cjc129_4420"
    INDEX 01 00:21:39
  TRACK 13 AUDIO
    TITLE "0:"
    INDEX 01 00:22:50
  TRACK 14 AUDIO
    TITLE "5:cjc129_4421"
    INDEX 01 00:23:04
  TRACK 15 AUDIO
    TITLE "0:"
    INDEX 01 00:25:31
  TRACK 16 AUDIO
    TITLE "4:cjc129_4422"
    INDEX 01 00:26:20
  TRACK 17 AUDIO
    TITLE "0:"
    INDEX 01 00:27:30
  TRACK 18 AUDIO
    TITLE "6:cjc129_4423"
    INDEX 01 00:27:63
  TRACK 19 AUDIO
    TITLE "0:"
    INDEX 01 00:33:36
  TRACK 20 AUDIO
    TITLE "3:cjc129_4424"
    INDEX 01 00:35:10
  TRACK 21 AUDIO
    TITLE "0:"
    INDEX 01 00:36:74
  TRACK 22 AUDIO
    TITLE "5:cjc129_4425"
    INDEX 01 00:37:34
  TRACK 23 AUDIO
    TITLE "0:"
    INDEX 01 00:39:56
  TRACK 24 AUDIO
    TITLE "4:cjc129_4426"
    INDEX 01 00:40:46
  TRACK 25 AUDIO
    TITLE "0:"
    INDEX 01 00:42:37
  TRACK 26 AUDIO
    TITLE "6:cjc129_4427"
    INDEX 01 00:42:66
  TRACK 27 AUDIO
    TITLE "0:"
    INDEX 01 00:46:51
  TRACK 28 AUDIO
    TITLE "3:cjc129_4428"
    INDEX 01 00:48:28
  TRACK 29 AUDIO
    TITLE "0:"
    INDEX 01 00:49:63
  TRACK 30 AUDIO
    TITLE "5:cjc129_4429"
    INDEX 01 00:50:23
  TRACK 31 AUDIO
    TITLE "0:"
    INDEX 01 00:52:65
  TRACK 32 AUDIO
    TITLE "4:cjc129_4430"
    INDEX 01 00:53:53
  TRACK 33 AUDIO
    TITLE "0:"
    INDEX 01 00:55:16
  TRACK 34 AUDIO
    TITLE "6:cjc129_4431"
    INDEX 01 00:55:50
  TRACK 35 AUDIO
    TITLE "0:"
    INDEX 01 00:59:43
  TRACK 36 AUDIO
    TITLE "3:cjc129_4432"
    INDEX 01 01:01:15
  TRACK 37 AUDIO
    TITLE "0:"
    INDEX 01 01:02:22
  TRACK 38 AUDIO
    TITLE "5:cjc129_4433"
    INDEX 01 01:02:54
  TRACK 39 AUDIO
    TITLE "0:"
    INDEX 01 01:06:63
  TRACK 40 AUDIO
    TITLE "4:cjc129_4434"
    INDEX 01 01:07:51
  TRACK 41 AUDIO
    TITLE "0:"
    INDEX 01 01:08:58
  TRACK 42 AUDIO
    TITLE "6:cjc129_4435"
    INDEX 01 01:09:14
  TRACK 43 AUDIO
    TITLE "0:"
    INDEX 01 01:14:04
  TRACK 44 AUDIO
    TITLE "3:cjc129_4436"
    INDEX 01 01:15:56
  TRACK 45 AUDIO
    TITLE "0:"
    INDEX 01 01:19:23
  TRACK 46 AUDIO
    TITLE "5:cjc129_4437"
    INDEX 01 01:19:54
  TRACK 47 AUDIO
    TITLE "0:"
    INDEX 01 01:22:09
  TRACK 48 AUDIO
    TITLE "4:cjc129_4438"
    INDEX 01 01:22:74
  TRACK 49 AUDIO
    TITLE "0:"
    INDEX 01 01:26:42
  TRACK 50 AUDIO
    TITLE "6:cjc129_4439"
    INDEX 01 01:26:70
  TRACK 51 AUDIO
    TITLE "0:"
    INDEX 01 01:31:12
  TRACK 52 AUDIO
    TITLE "3:cjc129_4440"
    INDEX 01 01:32:60
  TRACK 53 AUDIO
    TITLE "0:"
    INDEX 01 01:33:66
  TRACK 54 AUDIO
    TITLE "5:cjc129_4441"
    INDEX 01 01:34:22
  TRACK 55 AUDIO
    TITLE "0:"
    INDEX 01 01:37:11
  TRACK 56 AUDIO
    TITLE "4:cjc129_4442"
    INDEX 01 01:38:02
  TRACK 57 AUDIO
    TITLE "0:"
    INDEX 01 01:39:08
  TRACK 58 AUDIO
    TITLE "6:cjc129_4443"
    INDEX 01 01:39:41
  TRACK 59 AUDIO
    TITLE "0:"
    INDEX 01 01:43:52
  TRACK 60 AUDIO
    TITLE "3:cjc129_4444"
    INDEX 01 01:45:30
  TRACK 61 AUDIO
    TITLE "0:"
    INDEX 01 01:47:19
  TRACK 62 AUDIO
    TITLE "5:cjc129_4445"
    INDEX 01 01:47:50
  TRACK 63 AUDIO
    TITLE "0:"
    INDEX 01 01:49:45
  TRACK 64 AUDIO
    TITLE "4:cjc129_4446"
    INDEX 01 01:50:35
  TRACK 65 AUDIO
    TITLE "0:"
    INDEX 01 01:52:24
  TRACK 66 AUDIO
    TITLE "6:cjc129_4447"
    INDEX 01 01:52:55
  TRACK 67 AUDIO
    TITLE "0:"
    INDEX 01 01:57:13
